<svg width="262" height="32" viewBox="0 0 262 32" fill="none" xmlns="http://www.w3.org/2000/svg">
<g clip-path="url(#clip0_6_11)">
<path d="M15.5427 0C6.95855 0 0 7.16327 0 16C0 24.8367 6.95855 32 15.5427 32C24.1269 32 31.0855 24.8367 31.0855 16C31.0855 7.16327 24.1269 0 15.5427 0ZM15.5427 21.9868C12.3307 21.9868 9.72702 19.3065 9.72702 16C9.72702 12.6935 12.3307 10.0132 15.5427 10.0132C18.7547 10.0132 21.3585 12.6935 21.3585 16C21.3585 19.3065 18.7547 21.9868 15.5427 21.9868Z" fill="#106ECE"/>
<path d="M46.8483 0H31.6341C30.838 0 30.0975 0.415162 29.6645 1.10348L22.9934 11.7222C21.6542 13.8542 21.6705 16.5996 23.0336 18.7148L30.816 30.7821C31.2509 31.4557 31.9837 31.861 32.7702 31.861H46.3022C46.8348 31.861 47.1577 31.2565 46.8732 30.793L38.8206 17.707C38.3369 16.9201 38.335 15.9172 38.8178 15.1283L47.4211 1.06601C47.7037 0.602527 47.3809 0 46.8483 0Z" fill="#FA3A2E"/>
</g>
<path d="M216.261 3C216.273 5.66402 216.285 8.32803 216.298 10.9949C216.298 11.2196 216.298 11.4442 216.298 11.6804C216.616 11.6429 216.687 11.4356 216.822 11.306C219.062 9.1258 222.718 9.04516 225.062 11.1303C226.64 12.5329 227.364 14.3185 227.67 16.2826C228.093 18.9783 227.964 21.6395 227.057 24.243C226.729 25.179 226.264 26.0545 225.617 26.8379C223.254 29.7006 218.795 29.7093 216.641 26.8609C216.42 26.5701 216.187 26.2878 215.853 25.8673C215.853 26.7054 215.832 27.3937 215.862 28.0821C215.878 28.4651 215.774 28.5976 215.335 28.5918C213.739 28.5659 212.142 28.5659 210.545 28.5918C210.104 28.5976 210.009 28.4478 210.015 28.0734C210.034 26.8581 210.021 25.6427 210.021 24.4273C210.021 17.5383 210.021 10.6493 210.018 3.7632C210.018 3.50976 209.982 3.25632 209.963 3.00288C212.062 3 214.162 3 216.261 3ZM221.664 19.2519C221.658 18.4225 221.645 17.521 221.302 16.6743C220.931 15.7556 220.346 14.9809 219.181 14.9406C218.029 14.9002 217.214 15.505 216.809 16.467C215.982 18.4283 216.025 20.4299 216.858 22.371C217.235 23.2465 217.998 23.8081 219.092 23.7736C220.202 23.739 220.802 23.0708 221.198 22.204C221.618 21.2823 221.633 20.2974 221.664 19.2519Z" fill="#FA3A2E"/>
<path d="M157.253 3C157.237 3.42624 157.21 3.8496 157.21 4.27585C157.207 7.94499 157.207 11.6141 157.207 15.2833C157.207 15.5079 157.207 15.7354 157.207 15.9601C157.25 15.9745 157.293 15.9889 157.335 16.0033C157.617 15.6318 157.902 15.2602 158.184 14.8858C159.303 13.4055 160.418 11.9252 161.537 10.4477C161.69 10.2461 161.804 10.033 162.156 10.0359C164.549 10.0532 166.94 10.0445 169.468 10.0445C169.229 10.3239 169.057 10.5312 168.877 10.7328C167.28 12.5156 165.692 14.3012 164.074 16.0695C163.768 16.4036 163.716 16.6513 163.93 17.0631C165.806 20.6833 167.654 24.315 169.511 27.9438C169.836 28.5774 169.833 28.5803 169.085 28.5803C167.216 28.5803 165.343 28.5659 163.474 28.5918C162.993 28.5976 162.757 28.4709 162.573 28.0389C161.687 25.9624 160.759 23.906 159.845 21.8411C159.753 21.6308 159.646 21.4264 159.524 21.1643C158.782 21.9937 158.083 22.78 157.372 23.5547C157.182 23.7592 157.21 23.9867 157.207 24.2171C157.204 25.4958 157.188 26.7774 157.216 28.0561C157.225 28.4795 157.078 28.5976 156.631 28.5918C154.921 28.5688 153.207 28.5602 151.497 28.5947C150.955 28.6062 150.817 28.4622 150.82 27.9582C150.839 19.8942 150.832 11.833 150.832 3.76896C150.832 3.51264 150.823 3.25632 150.82 3.00288C152.962 3 155.107 3 157.253 3Z" fill="#FA3A2E"/>
<path d="M176.694 3C176.694 6.0701 176.694 9.14308 176.694 12.265C176.967 12.17 177.08 11.9569 177.231 11.7956C178.567 10.3728 180.194 9.58084 182.266 9.63268C184.432 9.69028 185.937 10.6407 186.823 12.4609C187.448 13.7482 187.607 15.1306 187.616 16.5188C187.638 20.3579 187.619 24.1969 187.635 28.0389C187.638 28.445 187.54 28.5947 187.071 28.589C185.361 28.563 183.648 28.5602 181.938 28.589C181.435 28.5976 181.343 28.4334 181.346 28.0072C181.365 24.8507 181.355 21.6942 181.355 18.5377C181.355 17.9818 181.343 17.4318 181.214 16.8846C180.975 15.8708 180.387 15.3034 179.434 15.1969C178.545 15.0961 177.675 15.5684 177.231 16.4238C176.792 17.2676 176.694 18.1835 176.691 19.1022C176.679 22.0254 176.664 24.9457 176.697 27.8689C176.703 28.468 176.52 28.6091 175.907 28.5947C174.335 28.5544 172.759 28.5515 171.184 28.5976C170.568 28.6149 170.433 28.4421 170.433 27.8862C170.452 19.8452 170.449 11.8013 170.446 3.76032C170.446 3.50688 170.409 3.25344 170.39 3C172.496 3 174.595 3 176.694 3Z" fill="#FA3A2E"/>
<path d="M97.4232 3C97.4294 3.80928 97.4416 4.61857 97.4416 5.42785C97.4447 12.9101 97.4355 20.3895 97.4569 27.8718C97.46 28.4766 97.27 28.6062 96.6602 28.5947C95.0206 28.5573 93.378 28.5717 91.7354 28.589C91.3585 28.5918 91.2206 28.5026 91.2206 28.1282C91.2359 19.7732 91.239 11.4183 91.2451 3.06336C91.2451 3.0432 91.2543 3.02016 91.2573 3C93.3167 3 95.37 3 97.4232 3Z" fill="#106ECE"/>
<path d="M106.595 3C106.602 4.45153 106.592 5.90018 106.62 7.35171C106.626 7.74627 106.497 7.85571 106.081 7.85283C104.371 7.83267 102.658 7.83267 100.947 7.85283C100.531 7.85859 100.399 7.74627 100.405 7.35171C100.433 5.90306 100.427 4.45153 100.436 3.00288C102.489 3 104.542 3 106.595 3Z" fill="#106ECE"/>
<path d="M247.55 28.5803C245.628 28.5803 243.83 28.5774 242.028 28.5861C241.74 28.5861 241.651 28.4392 241.54 28.2318C241.246 27.6702 241.163 27.0568 241.019 26.4549C240.786 26.4606 240.713 26.6421 240.596 26.7573C238.457 28.8885 235.791 29.3493 232.88 28.7704C230.511 28.301 228.96 26.3742 228.859 24.0328C228.731 21.0001 230.033 19.2491 233.143 18.3851C234.713 17.9473 236.312 17.6046 237.897 17.21C238.69 17.0113 239.444 16.7118 240.198 16.4122C240.535 16.2769 240.679 16.1156 240.658 15.747C240.578 14.4049 240.005 13.8807 238.552 13.8605C237.051 13.8375 235.84 14.2234 235.396 15.7383C235.322 15.9889 235.178 16.0494 234.893 16.0119C233.223 15.7959 231.55 15.5857 229.874 15.4129C229.368 15.361 229.359 15.1508 229.441 14.7764C230.107 11.8647 231.679 10.3988 234.936 9.85444C237.336 9.45412 239.76 9.52324 242.147 9.97828C244.731 10.4736 245.999 12.1498 246.508 14.4452C246.689 15.2631 246.775 16.0868 246.772 16.922C246.765 19.5889 246.784 22.2558 246.762 24.9227C246.756 26.1582 246.992 27.3361 247.55 28.5803ZM240.667 20.9742C240.667 20.7841 240.652 20.5911 240.67 20.4011C240.713 19.9547 240.63 19.7819 240.088 19.9979C239.276 20.3204 238.424 20.5537 237.59 20.8359C237.035 21.0231 236.478 21.2161 235.99 21.5329C235.206 22.0398 234.893 22.97 235.197 23.8571C235.463 24.6376 236.138 25.035 237.161 25.0321C238.05 25.0293 238.791 24.698 239.444 24.1652C240.483 23.3156 240.661 22.1752 240.667 20.9742Z" fill="#FA3A2E"/>
<path d="M201.438 26.3627C200.411 27.46 199.286 28.2981 197.824 28.6638C196.369 29.0296 194.898 29.1218 193.427 28.8078C190.678 28.2203 189.014 25.7723 189.333 22.9643C189.596 20.6401 190.889 19.1454 193.264 18.4945C194.944 18.0337 196.648 17.642 198.339 17.2158C199.176 17.0055 199.973 16.6916 200.766 16.3662C201.039 16.2538 201.131 16.1127 201.125 15.8362C201.097 14.4596 200.494 13.8893 199.044 13.8605C197.512 13.8317 196.292 14.2321 195.848 15.7758C195.78 16.0148 195.624 16.0436 195.385 16.0148C193.69 15.8046 191.996 15.5972 190.298 15.4071C189.909 15.3639 189.817 15.2458 189.893 14.8772C190.522 11.9021 192.186 10.3469 195.501 9.83716C197.858 9.47428 200.236 9.53476 202.581 9.9754C204.836 10.3988 206.2 11.7466 206.797 13.8001C207.073 14.7505 207.236 15.7124 207.233 16.7031C207.22 19.4132 207.239 22.1204 207.223 24.8305C207.217 25.9739 207.374 27.0856 207.833 28.1454C207.983 28.491 207.913 28.5918 207.515 28.589C205.872 28.5774 204.229 28.5746 202.587 28.5918C202.256 28.5947 202.121 28.4651 201.986 28.203C201.689 27.6414 201.652 27.0222 201.438 26.3627ZM201.128 21.3428C201.183 19.7847 201.183 19.7905 199.976 20.2139C199.485 20.3867 198.986 20.5278 198.489 20.6891C197.803 20.9137 197.107 21.1268 196.491 21.5041C195.679 22.0024 195.348 22.9182 195.636 23.8139C195.906 24.6433 196.568 25.0408 197.637 25.035C198.174 25.0321 198.67 24.8968 199.139 24.6606C200.723 23.8715 201.137 22.5323 201.128 21.3428Z" fill="#FA3A2E"/>
<path d="M115.121 12.9994C115.565 12.481 115.906 12.0692 116.261 11.6689C117.695 10.056 119.559 9.457 121.747 9.67012C123.975 9.88612 125.608 11.3953 126.163 13.7137C126.417 14.7822 126.491 15.8622 126.491 16.9537C126.491 20.6228 126.478 24.292 126.503 27.9611C126.506 28.4824 126.334 28.5976 125.81 28.589C124.168 28.5602 122.525 28.5544 120.882 28.5918C120.343 28.6034 120.251 28.4334 120.254 27.9755C120.276 24.8593 120.263 21.746 120.266 18.6299C120.266 17.9444 120.227 17.2647 120.024 16.6023C119.798 15.865 119.32 15.3639 118.489 15.2257C117.649 15.0846 116.963 15.3524 116.433 15.9658C115.829 16.6657 115.679 17.5095 115.63 18.3649C115.458 21.4551 115.587 24.5512 115.55 27.6443C115.535 28.7387 115.694 28.5688 114.52 28.5746C112.97 28.5832 111.416 28.563 109.865 28.5861C109.442 28.5918 109.326 28.4795 109.329 28.0849C109.341 22.2385 109.344 16.3921 109.326 10.5485C109.326 10.1021 109.491 10.0301 109.911 10.0359C111.462 10.056 113.016 10.0618 114.566 10.033C115.029 10.0244 115.146 10.1655 115.127 10.5744C115.097 11.3348 115.121 12.0951 115.121 12.9994Z" fill="#106ECE"/>
<path d="M77.1757 13.034C77.8284 12.2045 78.3586 11.5393 79.0297 10.9834C82.4345 8.17251 87.2979 9.67876 88.2418 13.8375C88.4563 14.7793 88.5421 15.7326 88.5391 16.6974C88.5329 20.4529 88.5268 24.2056 88.5513 27.9611C88.5544 28.4738 88.4012 28.6005 87.8679 28.5918C86.2253 28.5602 84.5827 28.5602 82.9401 28.5918C82.4191 28.6034 82.2904 28.4536 82.2935 27.9813C82.3149 24.8881 82.3088 21.795 82.3027 18.7019C82.3027 17.9991 82.2935 17.2906 82.0759 16.6081C81.8461 15.8823 81.3772 15.3697 80.5406 15.2286C79.7285 15.0903 79.0542 15.338 78.5241 15.9169C77.9479 16.5447 77.7641 17.3166 77.7058 18.1115C77.4729 21.2219 77.6537 24.338 77.5986 27.4513C77.5955 27.6645 77.5771 27.8805 77.6016 28.0907C77.6507 28.4882 77.476 28.5947 77.0623 28.5918C75.3523 28.5717 73.6392 28.5717 71.9291 28.5918C71.5062 28.5976 71.3898 28.4824 71.3928 28.0907C71.4051 22.2443 71.4082 16.4007 71.3898 10.5543C71.3898 10.1108 71.5522 10.033 71.9751 10.0388C73.5258 10.0589 75.0795 10.0647 76.6302 10.0359C77.0991 10.0272 77.2033 10.177 77.1849 10.5802C77.1512 11.3376 77.1757 12.098 77.1757 13.034Z" fill="#106ECE"/>
<path d="M146.576 23.7707C145.074 27.1086 142.466 28.8453 138.651 28.9662C137.462 29.0037 136.282 28.9806 135.105 28.8078C132.329 28.4046 130.475 26.8609 129.365 24.554C127.735 21.1556 127.686 17.6708 129.307 14.2695C130.738 11.2685 133.349 9.7594 136.867 9.64708C138.311 9.601 139.742 9.68164 141.124 10.1021C144.051 10.9892 145.623 13.0225 146.41 15.6778C146.882 17.2705 146.974 18.9092 146.989 20.5566C146.993 21.003 146.824 21.0721 146.404 21.0692C142.662 21.0548 138.924 21.0721 135.182 21.0491C134.578 21.0462 134.431 21.1959 134.587 21.7316C134.716 22.1838 134.792 22.6475 134.995 23.0795C135.96 25.1128 138.593 25.444 140.042 23.6814C140.401 23.2436 140.722 23.1169 141.28 23.2033C142.157 23.3387 143.045 23.3934 143.928 23.4856C144.792 23.5748 145.65 23.6728 146.576 23.7707ZM137.581 17.6823C138.445 17.6823 139.31 17.6737 140.174 17.6881C140.517 17.6938 140.664 17.6334 140.606 17.259C140.49 16.5188 140.355 15.7873 139.962 15.1249C139.064 13.6129 136.947 13.3796 135.678 14.6381C134.952 15.3582 134.743 16.2654 134.56 17.1927C134.477 17.6161 134.639 17.7025 135.053 17.691C135.896 17.665 136.738 17.6823 137.581 17.6823Z" fill="#106ECE"/>
<path d="M69.6399 19.1425C69.6522 20.6545 69.4622 21.9995 68.9596 23.2984C67.3109 27.5723 63.6334 29.3406 59.107 28.9288C54.1823 28.4824 51.6632 24.724 51.1514 21.2651C50.8572 19.275 50.9706 17.3108 51.6785 15.3985C53.2108 11.2541 57.1794 9.09412 61.8253 9.7018C66.9492 10.3728 68.9994 14.1053 69.4928 17.2446C69.6001 17.9214 69.6614 18.5982 69.6399 19.1425ZM63.3882 19.3815C63.3851 18.3563 63.3514 17.3281 62.9071 16.369C62.429 15.3351 61.7088 14.5316 60.3819 14.5229C59.0702 14.5114 58.2306 15.2372 57.8046 16.297C56.9925 18.3188 57.0047 20.3924 57.7985 22.42C58.2489 23.572 59.3032 24.2344 60.3849 24.1883C61.6874 24.1307 62.4474 23.3934 62.9132 22.3336C63.3269 21.3889 63.3729 20.3867 63.3882 19.3815Z" fill="#106ECE"/>
<path d="M255.132 12.9217C255.469 12.3169 255.708 11.8676 255.965 11.4327C257.415 9.00484 259.971 9.40516 261.812 10.4564C262.045 10.5888 262.024 10.7501 261.947 10.946C261.396 12.3889 260.841 13.8289 260.299 15.2775C260.194 15.554 260.069 15.6634 259.762 15.505C259.563 15.4042 259.345 15.3351 259.128 15.2718C258.058 14.955 257.185 15.2487 256.609 16.1502C255.968 17.1466 255.806 18.2727 255.696 19.3988C255.417 22.1867 255.579 24.986 255.576 27.7768C255.576 28.4594 255.374 28.6178 254.675 28.5976C253.057 28.5486 251.436 28.5688 249.815 28.5918C249.389 28.5976 249.278 28.4709 249.278 28.0821C249.291 22.2356 249.291 16.3892 249.278 10.5456C249.278 10.154 249.386 10.033 249.812 10.0388C251.408 10.0618 253.005 10.0618 254.605 10.0388C255.021 10.033 255.162 10.1338 255.144 10.537C255.104 11.2685 255.132 12.0058 255.132 12.9217Z" fill="#FA3A2E"/>
<path d="M100.414 19.2577C100.414 16.4007 100.433 13.5409 100.399 10.6839C100.393 10.1338 100.567 10.0215 101.122 10.033C102.765 10.0676 104.407 10.0589 106.047 10.0359C106.488 10.0301 106.62 10.1367 106.62 10.5629C106.605 16.3863 106.605 22.2068 106.62 28.0302C106.62 28.4853 106.479 28.6005 106.007 28.5918C104.343 28.5659 102.676 28.5659 101.012 28.5918C100.534 28.6005 100.399 28.4709 100.402 28.0216C100.423 25.1013 100.414 22.178 100.414 19.2577Z" fill="#106ECE"/>
<defs>
<clipPath id="clip0_6_11">
<rect width="48" height="32" fill="white"/>
</clipPath>
</defs>
</svg>
