<svg id="Layer_1" data-name="Layer 1" xmlns="http://www.w3.org/2000/svg" viewBox="0 0 86.14 86.14"><defs><style>.cls-1{fill:#7b1eff;}</style></defs><path class="cls-1" d="M86.05,40.27v-.56l0,0A43.09,43.09,0,0,0,46.58.14l-.14,0H46c-1-.06-2-.1-2.93-.1s-2,0-2.93.1h-.41l0,0A43.07,43.07,0,1,0,86,46.73a.91.91,0,0,1,.07-.14v-.72c.06-.93.09-1.86.09-2.8S86.11,41.2,86.05,40.27ZM43.37,22.48c.87,2.05,1.65,3.89,2.48,5.87a21.12,21.12,0,0,0-5,0C41.71,26.38,42.49,24.54,43.37,22.48ZM55.21,34a19.25,19.25,0,0,0-2.77-2.72l3.79-1.05C55.89,31.47,55.57,32.63,55.21,34Zm1,22-3.77-1a21.6,21.6,0,0,0,2.73-2.76C55.56,53.48,55.88,54.63,56.24,55.93ZM55,43.07A11.61,11.61,0,1,1,43.37,31.46,11.7,11.7,0,0,1,55,43.07ZM31.54,52.18a21.92,21.92,0,0,0,2.73,2.72L30.48,56C30.86,54.62,31.18,53.46,31.54,52.18Zm-1-22,3.77,1A19.47,19.47,0,0,0,31.54,34ZM40.59,66.72V78.57c-.29.26-.24.62-.26,1a1.55,1.55,0,0,1-.19.89,37.47,37.47,0,0,1,0-74.7,2.12,2.12,0,0,1,.27.75.78.78,0,0,0,.22.43V9.67h0v3.19h0v3.52a15.26,15.26,0,0,0,.14,3.7s0,0,0,.05c-1.08,2.54-2.16,5.08-3.2,7.63-.27.66-.54.82-1.23.62-2.43-.71-4.88-1.36-7.33-2-1.82-.49-2.82.49-2.34,2.29.65,2.42,1.27,4.84,2,7.24.23.75.13,1.07-.64,1.38-2.6,1.06-5.17,2.17-7.76,3.27H15.56a28.52,28.52,0,0,1,.49-3.68h0c.4-1.29.8-2.57,1.19-3.86l2-4.16,2.3-3.27c.84-.9,1.69-1.79,2.53-2.68h0a51.37,51.37,0,0,1,4.22-3.29h0l2.13-1.13.06.76h0v4.43h0c0,1.18,5,1.18,5,0V19.23h0V15.88c0-.47,0-1,0-1.42a2.44,2.44,0,0,0-3-2.26,23.3,23.3,0,0,0-6.87,3.3h0a23.12,23.12,0,0,0-4.85,3.73,18.82,18.82,0,0,0-3,3.19h0a16.54,16.54,0,0,0-2.06,2.85h0a18.16,18.16,0,0,0-2,3.36h0a18,18,0,0,0-1.57,3.86h0A16.87,16.87,0,0,0,11,36.69a15.58,15.58,0,0,0-.54,4h0a16.37,16.37,0,0,0,0,4.74,7.81,7.81,0,0,0,.2,2.15h0a14,14,0,0,0,.64,3.2h0a13.5,13.5,0,0,0,1,3.35h0a14.87,14.87,0,0,0,1.52,3.52h0A10.05,10.05,0,0,0,15.18,60h0A13.3,13.3,0,0,0,17,62.72h0a17.26,17.26,0,0,0,2.57,3,6,6,0,0,0,1.18,1.17h0a9.1,9.1,0,0,0,2,1.71h0a22.92,22.92,0,0,0,3.53,2.49,30.36,30.36,0,0,0,5.94,2.79,2.35,2.35,0,0,0,1.06.11c1.57-.23,2.31-1.31,2.21-3.25V65.39h0V62.2h0c0-1.18-5-1.18-5,0v3.19h0c0,.27,0,.55,0,.83,0,1.53,0,1.53-1.31.84-.29-.16-.56-.34-.83-.51h0l-1.91-1.33h0l-3.11-2.71-2.29-2.66-1.74-2.54h0c-.59-1.16-1.18-2.33-1.76-3.5-.4-1.11-.79-2.23-1.18-3.35l-.66-3h0c0-.3-.06-.61-.12-.91-.14-.68,0-1,.83-1,1.84.06,2.22,0,3.79,0,2.61,1.11,5.21,2.23,7.83,3.29.75.3.8.65.61,1.32-.7,2.44-1.36,4.88-2,7.33-.47,1.73.55,2.74,2.29,2.27,2.48-.66,5-1.33,7.43-2,.63-.18.92,0,1.17.57,1,2.56,2.12,5.09,3.19,7.63a3.75,3.75,0,0,0-.13.77Zm-12-21.18-5.86-2.46,5.85-2.49A20.49,20.49,0,0,0,28.64,45.54ZM40.9,57.84a21.05,21.05,0,0,0,5-.07c-.83,2-1.6,3.82-2.48,5.89C42.5,61.62,41.72,59.79,40.9,57.84ZM46,80.42a1.67,1.67,0,0,1-.18-.85c0-.35.05-.74-.26-1V73.44h0V67q1.84-4.36,3.67-8.75c.22-.53.46-.69,1-.51,1,.33,2.12.59,3.18.88l4.81,1.32a1.7,1.7,0,0,0,1.87-2.31c-.66-2.48-1.34-5-2-7.42-.19-.66-.17-1,.6-1.33,2.63-1,5.23-2.17,7.84-3.27.93,0,1.69,0,3,0,.81,0,1.22.15,1,1h0c-.16.89-.33,1.79-.49,2.69-.36,1.16-.71,2.33-1.07,3.5h0l-1.8,3.88h0l-2.13,3.19L63,62.34h0c-1.27,1.19-2.6,2.31-4,3.38a24.5,24.5,0,0,1-3.39,1.92V62c0-1.12-5-1.12-5,0v7.93c0,.44,0,.89,0,1.33a2.51,2.51,0,0,0,3.61,2.53,25.74,25.74,0,0,0,7.12-3.72h0a20.65,20.65,0,0,0,4.71-3.83,19,19,0,0,0,3-3.48h0A16.77,16.77,0,0,0,71,60h0a14.17,14.17,0,0,0,1.64-3,16.63,16.63,0,0,0,1.52-3.83,16.48,16.48,0,0,0,1-3.72,7.86,7.86,0,0,0,.36-2.32h0a4.49,4.49,0,0,0,.17-1.67h0a8.48,8.48,0,0,0,.12-2.56,21.42,21.42,0,0,0-.34-4.52,15.71,15.71,0,0,0-.65-3.19,16.49,16.49,0,0,0-1-3.36h0a15.52,15.52,0,0,0-1.5-3.35h0a13.82,13.82,0,0,0-1.81-3.2h0a16.46,16.46,0,0,0-2.06-2.84h0a14.65,14.65,0,0,0-2.32-2.53h0a14.59,14.59,0,0,0-2.85-2.52,19.69,19.69,0,0,0-4.34-2.87,20,20,0,0,0-5-2.29,2.44,2.44,0,0,0-3.18,2.48h0v2.86h0v2.68h0V23.6h0c0,1.23,5,1.23,5,0V20.24h0V18.47a25.66,25.66,0,0,1,3.38,2l3,2.47,2.52,2.71h0l2.31,3.25,1.7,3.32h0l1.16,3.21h0c.23,1,.45,2,.68,3h0c.06.44.09.88.17,1.32.1.61,0,.89-.75.87-1.49,0-2.25,0-3.32,0-2.65-1.12-5.3-2.25-8-3.33-.63-.26-.67-.55-.52-1.11.7-2.47,1.37-5,2-7.43.48-1.8-.54-2.8-2.33-2.31-2.48.68-5,1.34-7.42,2-.59.16-.87.06-1.11-.54C48,25,46.81,22.09,45.59,19.2c.09-.94,0-1.88,0-2.82h0V12.86c0-1.07,0-2.13,0-3.19h0V6.89a.77.77,0,0,0,.24-.62A.75.75,0,0,1,46,5.72a37.46,37.46,0,0,1,0,74.7ZM58.09,40.58,64,43.06l-5.84,2.49A20.67,20.67,0,0,0,58.09,40.58Z"/><path class="cls-1" d="M44.41,37.73c-6.38,0-6.38,0-6.38,4.32,0,6.36,0,6.36,4.42,6.36,6.25,0,6.25,0,6.25-5.25C48.7,37.73,48.7,37.73,44.41,37.73Z"/></svg>