<svg id="Layer_1" data-name="Layer 1" xmlns="http://www.w3.org/2000/svg" viewBox="0 0 83.12 104.39"><defs><style>.cls-1{fill:#4e4e4e;}</style></defs><path class="cls-1" d="M49.77,72c-2,0-4,0-6,0-.57,0-.76-.15-.74-.74,0-1.08,0-2.17,0-3.26,0-.44.14-.58.58-.57,1.09,0,2.17,0,3.26,0,2.36,0,2.34,0,2.3-2.33,0-.59-.19-.74-.75-.74-2.55,0-5.1,0-7.64,0-.74,0-.81.29-.81.89,0,2,0,4,0,6,0,.57-.14.77-.73.75-1.09,0-2.18,0-3.26,0-.51,0-.63-.16-.62-.64,0-1.08,0-2.17,0-3.26,0-2.32,0-2.3-2.37-2.24-.53,0-.71.13-.7.68,0,1.29,0,2.58,0,3.87s0,2.58,0,3.87c0,.64.17.79.79.78,2,0,4.07,0,6.11,0,.56,0,.79.14.77.74-.05,1,0,2.1,0,3.16,0,.57-.15.77-.75.75-1.05,0-2.1,0-3.15,0-2.3,0-2.27,0-2.24,2.29,0,.64.19.8.81.79q3.77-.06,7.53,0c.68,0,.87-.18.86-.85,0-2,0-4,0-6,0-.68.19-.88.86-.85,1,0,2,0,3,0,.53,0,.72.14.7.68,0,1.05,0,2.11,0,3.16,0,2.33,0,2.3,2.3,2.31.65,0,.78-.19.77-.8,0-2.51,0-5,0-7.54C50.7,72.12,50.45,72,49.77,72Z"/><path class="cls-1" d="M25.44,27.07a13.92,13.92,0,0,1,1.72.18c.56.11.66-.11.72-.62a40.51,40.51,0,0,1,2.18-9.26c.07-.2.16-.43.26-.68.9-2.09,2.14-4.61,2.22-4.76A44.57,44.57,0,0,1,37.93,4.3a2.82,2.82,0,0,1,2.75-1.25,11.43,11.43,0,0,0,2.34,0,1.71,1.71,0,0,1,1.49.63A39.67,39.67,0,0,1,55.08,26.33c.1.77.32,1,.84.85S57,27,57.45,27c.7,0,.79-.29.71-.93A43.24,43.24,0,0,0,45.71.52,1.41,1.41,0,0,0,44.58,0q-3.06,0-6.11,0a1.46,1.46,0,0,0-1.15.49,48.69,48.69,0,0,0-6.73,8.66v0a58.64,58.64,0,0,0-2.76,5.5,44.72,44.72,0,0,0-3,11.78C24.57,27,25,27,25.44,27.07Z"/><path class="cls-1" d="M40.53,58.05c1.28,0,2.57,0,3.86,0h2.44C49,58,49,58,49,55.78c0-.62-.16-.82-.79-.81-2,0-4.07,0-6.1,0-2.44,0-2.42,0-2.31,2.41C39.82,58,40,58.06,40.53,58.05Z"/><path class="cls-1" d="M30.38,89.06c-1.95.15-2,0-2,1.22,0,1.88,0,1.88,1.18,1.88,1.88,0,1.88,0,1.88-1.59C31.44,89.84,31.82,89,30.38,89.06Z"/><path class="cls-1" d="M36.44,89.1c-1.91,0-1.91,0-1.91,1.14,0,1.92,0,1.92,1.44,1.92,1.62,0,1.62,0,1.62-1.15C37.59,89.1,37.59,89.1,36.44,89.1Z"/><path class="cls-1" d="M53.87,55C52,55,52,55,52,56.22,52,58,52,58,53.3,58.05c1.8,0,1.8,0,1.8-1.51S55.1,55,53.87,55Z"/><path class="cls-1" d="M39.89,8.89c0,1.82,0,1.82,1.26,1.82,1.8,0,1.8,0,1.8-1.51s0-1.55-1.23-1.55C39.89,7.65,39.89,7.65,39.89,8.89Z"/><path class="cls-1" d="M43,12c0,1.83,0,1.83,1.26,1.83,1.8,0,1.8,0,1.8-1.51s0-1.55-1.23-1.55C43,10.73,43,10.73,43,12Z"/><circle class="cls-1" cx="45.65" cy="69.8" r="1.08"/><circle class="cls-1" cx="37.75" cy="69.8" r="1.08"/><circle class="cls-1" cx="45.65" cy="77.37" r="1.08"/><circle class="cls-1" cx="37.75" cy="77.37" r="1.08"/><path class="cls-1" d="M79.61,36.61A22.88,22.88,0,0,0,72,30.93a9.82,9.82,0,0,0-1.62-.65h0a21.56,21.56,0,0,0-5.06-1.09,18.18,18.18,0,0,0-12.41,3.93c-.74.58-1.41,1.22-2.21,1.92a17.73,17.73,0,0,0-.34-3.86C49.27,26.27,46,23.1,41.9,20.63a.61.61,0,0,0-.73,0c-4.12,2.46-7.4,5.6-8.51,10.51a17.28,17.28,0,0,0-.35,3.78c-.11,0-.15,0-.17,0l-.67-.61c-5-4.62-10.89-6.2-17.51-4.45C7.82,31.48,3.66,35.74,0,40.79l2.48-.32c4-.51,8.09-1,12.16-.38l.18,0,.35.07a32.63,32.63,0,0,1,3.48,1,9.75,9.75,0,0,1,3.55,2.35c-.24.23-.46.44-.66.66a4.48,4.48,0,0,0,.33,6.53c.7.57.67.93.3,1.63a13.13,13.13,0,0,0-.66,1.34c-1,1.64-2,3.8-2.17,4.12-1,2.13-2.19,4.2-3.19,6.35a25.38,25.38,0,0,0-2,16.94c1.68,7,5.9,12.23,11.94,16.05.43.27.83.45.81,1.13-.06,2,0,4.07,0,6.11H56.17c0-2,0-4.08,0-6.11a1,1,0,0,1,.63-1c.77-.48,1.53-1,2.27-1.54,1-.43,4.51-4.11,4.89-4.6A24.94,24.94,0,0,0,68,84c2.61-7.28,1.67-14.28-1.73-21.07-1.79-3.57-3.62-7.12-5.46-10.67-.32-.6-.49-1,.25-1.46a3.53,3.53,0,0,0,1.44-2.15,4.65,4.65,0,0,0-1.67-5.09,11.14,11.14,0,0,1,5.14-3,29.89,29.89,0,0,1,11.11-.52c2,.2,3.88.46,6,.72C81.87,39.3,80.78,37.92,79.61,36.61ZM35.54,32.33c.58-3.56,2.73-6,5.56-8.06a.66.66,0,0,1,.89.05,12.13,12.13,0,0,1,5.56,12.27A40.94,40.94,0,0,1,46.39,42a.92.92,0,0,1-1.12.82c-1.25-.06-2.51,0-3.76,0h-4c-.33,0-.64.07-.78-.41C35.79,39.07,35,35.78,35.54,32.33ZM57.37,45.81a7,7,0,0,1,1,0,1.5,1.5,0,0,1,.17,2.91,4.83,4.83,0,0,1-1.21.11H53.68l-.35,0-5.37,0H44.18c-7.07,0-15.73,0-18.59,0a4.33,4.33,0,0,1-1.2-.13,1.49,1.49,0,0,1,.19-2.88,5.7,5.7,0,0,1,1,0Zm-36.61-7a23.59,23.59,0,0,0-7.18-1.91,54.1,54.1,0,0,0-5.84-.12c4.53-3.86,9.62-5.62,15.49-3.83,5,1.52,8.22,5,10.33,9.84-2.47,0-4.75,0-7,0a1.66,1.66,0,0,1-1.47-.66A13.25,13.25,0,0,0,20.76,38.77ZM16.62,76.39a11.61,11.61,0,0,0,0-1.32,24.84,24.84,0,0,1,.44-4.13c.11-.77.43-.82,1.06-.51a3.52,3.52,0,0,1,2,3.48A3.67,3.67,0,0,1,17.44,77C16.86,77.19,16.55,77.09,16.62,76.39Zm1.09,6.07c0-.13-.07-.26-.1-.39-.15-.56-.53-1.17-.4-1.65s1-.36,1.48-.54a6.79,6.79,0,0,0,4.48-6.2,6.39,6.39,0,0,0-4.26-6.19c-.68-.25-.66-.51-.43-1.08.9-2.17,1.08-2.25,3.16-1a9.25,9.25,0,0,1,4.58,8.11A10.12,10.12,0,0,1,19,83.15C18.32,83.33,17.82,83.3,17.71,82.46ZM53.12,99.27c-.08,2.06,0,2.06-2.06,2.06-2.21,0-4.42,0-6.63,0-3.35,0-11.08,0-13.61,0-.66,0-.94-.09-.92-.85,0-2.22,0-2.22,2.19-2.22,6.65,0,13.3,0,19.94,0C52.82,98.25,53.15,98.36,53.12,99.27ZM65.93,70.76a28.84,28.84,0,0,1,.55,4.13v1c0,1.48-.23,1.63-1.54.94a3.51,3.51,0,0,1-2-3.47,3.44,3.44,0,0,1,2.14-3.08C65.63,70,65.82,70.2,65.93,70.76ZM64,65.23c.18.61.74,1.21.67,1.76s-1,.54-1.48.84a6.65,6.65,0,0,0,1.94,12.28c.73.14.84.33.64,1-.55,2-.62,2-2.56,1.29a9.67,9.67,0,0,1-6.42-9,9.42,9.42,0,0,1,5.79-8.71C63.26,64.41,63.73,64.35,64,65.23Zm-2.21-4.39c.3.57.32.79-.36,1.08A12.41,12.41,0,0,0,53.73,73.7a12.85,12.85,0,0,0,7.94,11.46c.68.28,1.84.16,1.93.89s-.75,1.3-1.16,2A34.66,34.66,0,0,1,59.88,91c-.32.33-.68.68-1,1a2.09,2.09,0,0,0-.25.18,24.24,24.24,0,0,1-3.79,2.72,2.28,2.28,0,0,1-1.24.35q-12.06,0-24.13,0A2,2,0,0,1,28.37,95,24.78,24.78,0,0,1,20,87.21c-.48-.72-.65-1,.43-1.38a13.06,13.06,0,0,0,8.8-11.59,12.2,12.2,0,0,0-7.41-12.12c-1-.43-.92-.78-.49-1.56.27-.51,1.31-2.43,2.18-4.16.28-.55.54-1.09.75-1.55.33-.64.7-1.27,1-1.93a1.48,1.48,0,0,1,1.6-1c3.54.06,7.08,0,10.62,0l.36,0c4.14,0,14.41,0,18.55,0a1.1,1.1,0,0,1,1.18.69Q59.64,56.75,61.78,60.84Zm13.44-24a30.58,30.58,0,0,0-6.2,0c-3.69.39-7.23,1.34-9.86,4.06a5.54,5.54,0,0,1-4.89,1.81c-1.56-.12-3.14,0-4.75,0A15.85,15.85,0,0,1,64.13,32.23a14.75,14.75,0,0,1,5.36,1,17.46,17.46,0,0,1,5.3,3C75,36.4,75.31,36.48,75.22,36.86Z"/></svg>